<?xml version="1.0" encoding="UTF-8"?> <svg xmlns="http://www.w3.org/2000/svg" width="234" height="33" viewBox="0 0 234 33" fill="none"> <path d="M27.8242 1.00586C29.3828 5.3418 30.3848 9.10938 30.8301 12.3086C33.6426 9.19141 36.0391 6.85938 38.0195 5.3125C40.2461 3.56641 42.3496 2.24805 44.3301 1.35742C45.7598 0.724609 47.0254 0.408203 48.127 0.408203C48.8652 0.408203 49.5332 0.601562 50.1309 0.988281C50.6934 1.35156 50.9746 1.85547 50.9746 2.5C50.9746 2.86328 50.834 3.12109 50.5527 3.27344C50.4824 3.32031 50.3828 3.34375 50.2539 3.34375C49.7734 3.34375 49.5332 3.09766 49.5332 2.60547C49.5332 2.45312 49.5625 2.25977 49.6211 2.02539C49.6562 1.9082 49.6738 1.81445 49.6738 1.74414C49.6738 1.5918 49.5859 1.45117 49.4102 1.32227C49.2109 1.18164 49.0059 1.11133 48.7949 1.11133C47.7402 1.11133 46.4102 2.11328 44.8047 4.11719C42.7422 6.68359 41.1016 9.79492 39.8828 13.4512C39.0508 15.9355 38.6348 18.2031 38.6348 20.2539C38.6348 21.4141 38.8516 22.2754 39.2852 22.8379C39.7539 23.4355 40.3281 23.7344 41.0078 23.7344C42.0039 23.7344 42.8066 23.1602 43.416 22.0117L43.8555 22.2051C43.6094 22.709 43.3516 23.1367 43.082 23.4883C42.0977 24.7422 40.8848 25.3691 39.4434 25.3691C38.1895 25.3691 37.2109 24.8477 36.5078 23.8047C35.8633 22.832 35.541 21.584 35.541 20.0605C35.541 17.3652 36.2676 14.4473 37.7207 11.3066C38.9863 8.56445 40.5215 6.21484 42.3262 4.25781C42.959 3.58984 43.9023 2.70508 45.1562 1.60352C44.3594 1.82617 43.3105 2.32422 42.0098 3.09766C40.7207 3.87109 39.4199 4.76758 38.1074 5.78711C36.3613 7.18164 34.5156 8.93945 32.5703 11.0605C32.0195 11.6465 31.4746 12.2324 30.9355 12.8184C31.1816 14.4707 31.3047 16.0117 31.3047 17.4414C31.3047 20.0898 30.9004 22.0762 30.0918 23.4004C29.4473 24.4668 28.5977 25 27.543 25C26.7695 25 26.1895 24.6719 25.8027 24.0156C25.5566 23.5938 25.4336 23.1133 25.4336 22.5742C25.4336 20.4883 26.582 17.9395 28.8789 14.9277C28.7383 13.6973 28.4277 12.0801 27.9473 10.0762C27.3613 7.75586 26.7754 5.86328 26.1895 4.39844C25.6738 9.13281 24.4199 13.2461 22.4277 16.7383C20.7754 19.6328 18.6133 21.8828 15.9414 23.4883C13.8672 24.7305 11.4355 25.3516 8.64648 25.3516C6.34961 25.3516 4.49219 24.8828 3.07422 23.9453C1.21094 22.7266 0.279297 21.0742 0.279297 18.9883C0.279297 17.7227 0.677734 16.6328 1.47461 15.7188C2.24805 14.8281 3.20312 14.3828 4.33984 14.3828C5.03125 14.3828 5.63477 14.6172 6.15039 15.0859C6.66602 15.5547 6.92383 16.1406 6.92383 16.8438C6.92383 17.418 6.72461 17.8398 6.32617 18.1094C6.0918 18.2734 5.81641 18.3555 5.5 18.3555C4.97266 18.3555 4.62695 18.2148 4.46289 17.9336C4.4043 17.8398 4.375 17.7578 4.375 17.6875C4.375 17.6172 4.39258 17.5234 4.42773 17.4062C4.47461 17.2656 4.49805 17.1543 4.49805 17.0723C4.49805 16.7793 4.35156 16.5098 4.05859 16.2637C3.77734 16.041 3.46094 15.9297 3.10938 15.9297C2.61719 15.9297 2.20703 16.082 1.87891 16.3867C1.14062 17.043 0.771484 17.916 0.771484 19.0059C0.771484 20.752 1.58008 22.1348 3.19727 23.1543C4.38086 23.9043 5.92773 24.2793 7.83789 24.2793C11.6582 24.2793 15.0977 22.8613 18.1562 20.0254C21.0156 17.3652 23.1074 13.9082 24.4316 9.6543C25.0879 7.58008 25.5156 5.45312 25.7148 3.27344C24.7773 3.16797 23.7812 3.11523 22.7266 3.11523C20.2305 3.11523 18.4492 3.37891 17.3828 3.90625C16.8086 4.1875 16.3691 4.65039 16.0645 5.29492C15.8887 5.66992 15.8008 6.06836 15.8008 6.49023C15.8008 7.11133 15.9824 7.60938 16.3457 7.98438C16.6621 8.30078 17.0488 8.45898 17.5059 8.45898C17.9395 8.45898 18.2852 8.31836 18.543 8.03711C18.7422 7.81445 18.8418 7.55664 18.8418 7.26367C18.8418 7.20508 18.8184 7.07031 18.7715 6.85938C18.7598 6.82422 18.7539 6.7832 18.7539 6.73633C18.7539 6.58398 18.8477 6.45508 19.0352 6.34961C19.2227 6.23242 19.4512 6.17383 19.7207 6.17383C20.5879 6.17383 21.0215 6.61914 21.0215 7.50977C21.0215 8.2832 20.6934 8.875 20.0371 9.28516C19.5684 9.57812 19.0645 9.72461 18.5254 9.72461C17.5762 9.72461 16.7852 9.34961 16.1523 8.59961C15.6367 8.00195 15.3789 7.32227 15.3789 6.56055C15.3789 5.81055 15.584 5.07227 15.9941 4.3457C16.4043 3.60742 16.9668 2.96875 17.6816 2.42969C19.0645 1.39844 20.8281 0.882812 22.9727 0.882812C23.3828 0.882812 24.7012 0.917969 26.9277 0.988281C27.127 0.988281 27.4258 0.994141 27.8242 1.00586ZM28.9668 15.5254C28.2637 16.4863 27.7949 17.1602 27.5605 17.5469C26.5293 19.2461 26.0137 20.834 26.0137 22.3105C26.0137 22.8027 26.1191 23.2246 26.3301 23.5762C26.5996 24.0098 26.9277 24.2266 27.3145 24.2266C27.5605 24.2266 27.7949 24.0977 28.0176 23.8398C28.252 23.582 28.4277 23.2539 28.5449 22.8555C28.9082 21.6367 29.0898 19.9727 29.0898 17.8633C29.0898 17.1602 29.0488 16.3809 28.9668 15.5254ZM53.998 19.8848C52.8613 21.9355 51.6895 23.418 50.4824 24.332C49.5332 25.0703 48.584 25.4395 47.6348 25.4395C45.9238 25.4395 45.0684 24.4785 45.0684 22.5566C45.0684 21.3262 45.4785 19.8965 46.2988 18.2676C46.627 17.6348 47.0078 16.9785 47.4414 16.2988C47.7812 15.7715 48.1504 15.2383 48.5488 14.6992C51.3145 10.9141 53.834 9.02148 56.1074 9.02148C57.1738 9.02148 57.9004 9.53711 58.2871 10.5684L59.8164 9.02148H60.9941L56.9863 17.9863C55.7324 20.8223 55.1055 22.498 55.1055 23.0137C55.1055 23.3535 55.2168 23.5234 55.4395 23.5234H55.4922C55.7383 23.4883 56.1895 23.1133 56.8457 22.3984C57.0918 22.1289 57.3496 21.8301 57.6191 21.502C57.8418 21.2207 58.0469 20.957 58.2344 20.7109L58.6211 20.2188L58.9727 20.6055L58.0059 21.9414C57.7832 22.2461 57.5137 22.5801 57.1973 22.9434C56.834 23.3652 56.4707 23.7461 56.1074 24.0859C55.1582 24.9883 54.4141 25.4395 53.875 25.4395C53.6055 25.4395 53.377 25.3457 53.1895 25.1582C52.9551 24.9238 52.8379 24.5957 52.8379 24.1738C52.8379 23.6348 53.1602 22.3984 53.8047 20.4648L53.998 19.8848ZM57.3203 11.0957C57.3203 10.1465 56.8867 9.67188 56.0195 9.67188C55.1289 9.67188 54.1094 10.3164 52.9609 11.6055C52.5273 12.0859 52.082 12.6543 51.625 13.3105C51.4492 13.5684 51.2676 13.8438 51.0801 14.1367C50.9395 14.3477 50.7871 14.582 50.623 14.8398L50.4473 15.1387L50.2363 15.4727C50.0723 15.7539 49.9141 16.0293 49.7617 16.2988C49.3516 17.0137 48.9941 17.6934 48.6895 18.3379C47.8105 20.1426 47.3711 21.5723 47.3711 22.627C47.3711 23.7285 47.8047 24.2793 48.6719 24.2793C49.2695 24.2793 49.9551 23.9336 50.7285 23.2422C51.7949 22.2695 52.9609 20.6582 54.2266 18.4082L54.2617 18.3555L54.3145 18.2676C54.3496 18.1855 54.3906 18.1094 54.4375 18.0391C54.5664 17.8047 54.6953 17.5703 54.8242 17.3359C55.2109 16.6094 55.5625 15.9238 55.8789 15.2793C56.8398 13.2637 57.3203 11.8691 57.3203 11.0957ZM66.2148 10.7793C65.9453 10.9199 65.6934 11.0723 65.459 11.2363C65.1426 11.459 64.832 11.7051 64.5273 11.9746C63.7188 12.6895 62.957 13.5859 62.2422 14.6641L61.7852 14.2773C62.2773 13.3516 62.8691 12.5254 63.5605 11.7988C64.4629 10.8379 65.4883 10.1172 66.6367 9.63672L67.7441 6.41992L70.3633 5.3125L69.0625 9.02148C69.4141 8.91602 69.8301 8.86328 70.3105 8.86328C71.6816 8.86328 72.7715 9.39062 73.5801 10.4453C74.4121 11.5 74.8281 12.9531 74.8281 14.8047C74.8281 15.2266 74.7988 15.6543 74.7402 16.0879C74.6816 16.6387 74.5879 17.1836 74.459 17.7227C74.1191 19.082 73.5684 20.3418 72.8066 21.502C71.0723 24.1504 69.0449 25.4746 66.7246 25.4746C66.2559 25.4746 65.7988 25.3867 65.3535 25.2109C64.8027 25 64.2988 24.666 63.8418 24.209L61.8906 29.7812C61.8672 29.8398 61.8438 29.916 61.8203 30.0098L61.7324 30.3262C61.6621 30.6191 61.627 30.8359 61.627 30.9766C61.627 31.75 62.2656 32.1367 63.543 32.1367H63.9297L63.8418 32.7344H56.4238L56.5645 32.1367L57.8652 31.9082C58.6035 31.7793 59.1895 31.1113 59.623 29.9043L66.2148 10.7793ZM64.0703 23.4883C64.8438 24.2266 65.623 24.5957 66.4082 24.5957C67.0059 24.5957 67.6152 24.3789 68.2363 23.9453C69.0449 23.3594 69.8184 22.416 70.5566 21.1152C71.9512 18.7129 72.6484 16.2988 72.6484 13.873C72.6484 12.373 72.3086 11.2832 71.6289 10.6035C71.3711 10.3457 71.0664 10.1523 70.7148 10.0234C70.4336 9.92969 70.1348 9.88281 69.8184 9.88281C69.6543 9.88281 69.4492 9.90039 69.2031 9.93555L68.9219 9.98828L68.8164 10.0059L68.7461 10.0234L64.0703 23.4883ZM86.7812 19.709C86.043 21.666 85.6738 22.791 85.6738 23.084C85.6738 23.2715 85.7148 23.4004 85.7969 23.4707L85.9023 23.5234H85.9551C86.166 23.5234 86.4531 23.3242 86.8164 22.9258C87.3203 22.375 88 21.4492 88.8555 20.1484L89.1719 19.6387L89.6641 19.9551C89.5586 20.1426 89.4297 20.3594 89.2773 20.6055C89.0898 20.9102 88.9023 21.2148 88.7148 21.5195C88.1992 22.3164 87.7598 22.9492 87.3965 23.418C86.998 23.9453 86.5938 24.373 86.1836 24.7012C85.6328 25.1348 85.1055 25.3516 84.6016 25.3516C83.793 25.3516 83.3887 24.9355 83.3887 24.1035C83.3887 23.6934 83.5645 22.9844 83.916 21.9766L85.3047 17.8633C84.8477 18.707 84.373 19.5215 83.8809 20.3066C83.2598 21.2676 82.6621 22.0762 82.0879 22.7324C81.4785 23.4707 80.8457 24.0801 80.1895 24.5605C79.3691 25.1465 78.6191 25.4395 77.9395 25.4395C76.9434 25.4395 76.4453 24.8828 76.4453 23.7695C76.4453 23.3594 76.5156 22.9023 76.6562 22.3984C76.7148 22.2109 76.7852 22.0117 76.8672 21.8008C76.9141 21.6602 76.9785 21.502 77.0605 21.3262L80.8223 11.8516L80.8926 11.6934L80.9453 11.4824C80.9922 11.3066 81.0156 11.1777 81.0156 11.0957C81.0156 10.9785 80.9746 10.8906 80.8926 10.832L80.8047 10.7969L80.7344 10.7793C80.5469 10.7793 80.1953 11.0605 79.6797 11.623C79.4922 11.834 79.2988 12.0625 79.0996 12.3086C79.0176 12.4141 78.9355 12.5137 78.8535 12.6074C78.7949 12.6895 78.7363 12.7656 78.6777 12.8359L77.9043 13.873L77.4121 13.4512L78.168 12.3613C78.2148 12.2793 78.2852 12.1797 78.3789 12.0625C78.4844 11.9102 78.6016 11.7578 78.7305 11.6055C79.0586 11.1836 79.3984 10.7969 79.75 10.4453C80.7461 9.44922 81.6016 8.95117 82.3164 8.95117C83.1016 8.95117 83.4941 9.39062 83.4941 10.2695C83.4941 10.7617 83.1133 11.9512 82.3516 13.8379L79.2402 21.4668L79.082 21.8359L78.959 22.2227C78.8652 22.5391 78.8184 22.8555 78.8184 23.1719C78.8184 23.6523 79 23.8926 79.3633 23.8926C80.0547 23.8926 81.2266 22.7617 82.8789 20.5C84.8828 17.6992 86.7344 14.002 88.4336 9.4082H90.6309L86.7812 19.709ZM101.248 19.8496C100.533 21.7363 100.176 22.832 100.176 23.1367C100.176 23.418 100.275 23.5586 100.475 23.5586C100.791 23.5586 101.342 23.0195 102.127 21.9414C102.373 21.6133 102.648 21.2207 102.953 20.7637C103.07 20.5996 103.188 20.418 103.305 20.2188C103.398 20.0898 103.492 19.9434 103.586 19.7793L104.078 20.0605C104.043 20.1191 103.99 20.2012 103.92 20.3066L103.814 20.4824L103.709 20.6582C103.486 20.998 103.293 21.2969 103.129 21.5547C102.59 22.3867 102.162 23.0195 101.846 23.4531C101.682 23.6641 101.523 23.8574 101.371 24.0332C101.16 24.2793 100.949 24.4902 100.738 24.666C100.176 25.1582 99.6426 25.4043 99.1387 25.4043C98.3184 25.4043 97.9082 24.9238 97.9082 23.9629C97.9082 23.752 97.9375 23.5117 97.9961 23.2422C98.0781 22.8555 98.2246 22.3984 98.4355 21.8711L99.9824 17.7227H99.4375C98.8398 17.7227 98.2363 17.957 97.627 18.4258C97.1699 18.7773 96.7129 19.2637 96.2559 19.8848C95.916 20.3418 95.5586 20.9043 95.1836 21.5723L94.709 22.416L94.498 22.8027L94.3047 23.1719L94.1113 23.4883L93.8828 23.8574C93.6836 24.1387 93.4902 24.3848 93.3027 24.5957C92.7637 25.1582 92.1953 25.4395 91.5977 25.4395C91.1289 25.4395 90.7246 25.2695 90.3848 24.9297C89.9863 24.5195 89.7871 23.9453 89.7871 23.207C89.7871 22.3398 89.9277 21.4375 90.209 20.5L90.8242 20.3945C90.6484 21.1094 90.5605 21.7188 90.5605 22.2227C90.5605 22.9258 90.748 23.2773 91.123 23.2773C91.2988 23.2773 91.4805 23.2129 91.668 23.084C91.9258 22.9082 92.207 22.5977 92.5117 22.1523C92.6523 21.9648 92.8457 21.666 93.0918 21.2559L93.3906 20.7637L93.7246 20.2715C94.252 19.4746 94.8145 18.8535 95.4121 18.4082C95.8223 18.1035 96.25 17.8516 96.6953 17.6523C97.0352 17.5 97.3633 17.3945 97.6797 17.3359V17.2656C96.8477 17.1836 96.1562 16.873 95.6055 16.334C94.9727 15.7129 94.6562 14.9043 94.6562 13.9082C94.6562 12.3145 95.3594 11.1016 96.7656 10.2695C97.7031 9.69531 98.8516 9.4082 100.211 9.4082H105.607C105.057 10.1934 104.582 11.1074 104.184 12.1504C103.996 12.6074 103.785 13.1582 103.551 13.8027L103.41 14.1895L103.252 14.6113C103.135 14.9395 103.012 15.2676 102.883 15.5957L101.248 19.8496ZM102.848 10.2344C102.801 10.2344 102.619 10.2227 102.303 10.1992L101.951 10.1816L101.582 10.1641C100.152 10.1641 99.0391 10.5742 98.2422 11.3945C97.375 12.2617 96.9414 13.293 96.9414 14.4883C96.9414 16.0703 97.7617 16.8613 99.4023 16.8613H100.316L102.848 10.2344ZM154.176 5.01367C154.375 4.42773 154.533 3.94727 154.65 3.57227C154.768 3.18555 154.826 2.89258 154.826 2.69336C154.826 1.9668 154.387 1.5332 153.508 1.39258C153.285 1.3457 153.045 1.31641 152.787 1.30469C152.541 1.28125 152.283 1.26953 152.014 1.26953H151.979V0.794922H161.963V1.26953H161.488C160.527 1.28125 159.795 1.49805 159.291 1.91992C158.916 2.24805 158.594 2.66992 158.324 3.18555C158.207 3.39648 158.061 3.70703 157.885 4.11719C157.721 4.51563 157.521 5.01953 157.287 5.62891L151.275 20.7988C151.041 21.373 150.871 21.8535 150.766 22.2402C150.672 22.627 150.625 22.9199 150.625 23.1191C150.625 23.8223 151.064 24.2441 151.943 24.3848C152.166 24.4316 152.4 24.4609 152.646 24.4727C152.904 24.4844 153.168 24.4902 153.438 24.4902H154.158V25.0176L131.869 25.0352H118.562V24.5605H119.406C120.367 24.5488 121.1 24.332 121.604 23.9102C121.979 23.582 122.301 23.1602 122.57 22.6445C122.605 22.5742 122.717 22.293 122.904 21.8008C123.104 21.3086 123.338 20.7109 123.607 20.0078C123.877 19.293 124.164 18.5195 124.469 17.6875C124.785 16.8438 125.084 16.0469 125.365 15.2969C125.658 14.5352 125.91 13.8672 126.121 13.293C126.332 12.707 126.479 12.3145 126.561 12.1152L128.881 6.08594C129.467 4.52734 129.76 3.52539 129.76 3.08008C129.76 2.55273 129.473 2.17187 128.898 1.9375C128.324 1.69141 127.404 1.56836 126.139 1.56836C124.205 1.56836 122.576 1.91406 121.252 2.60547C120.279 3.12109 119.506 3.78906 118.932 4.60938C118.369 5.41797 118.088 6.26758 118.088 7.1582C118.088 7.86133 118.311 8.5 118.756 9.07422C119.154 9.60156 119.699 9.86523 120.391 9.86523C120.883 9.86523 121.311 9.71289 121.674 9.4082C121.943 9.17383 122.078 8.88672 122.078 8.54688C122.078 8.30078 121.955 8.02539 121.709 7.7207C121.592 7.56836 121.533 7.43359 121.533 7.31641C121.533 6.98828 121.691 6.70703 122.008 6.47266C122.254 6.29688 122.535 6.20898 122.852 6.20898C123.297 6.20898 123.66 6.39648 123.941 6.77148C124.211 7.13477 124.346 7.53906 124.346 7.98438C124.346 8.93359 123.895 9.71875 122.992 10.3398C122.371 10.75 121.709 10.9551 121.006 10.9551C119.693 10.9551 118.686 10.3984 117.982 9.28516C117.607 8.67578 117.42 8.01953 117.42 7.31641C117.42 6.53125 117.643 5.72852 118.088 4.9082C118.521 4.09961 119.119 3.40234 119.881 2.81641C121.557 1.52734 124.059 0.882812 127.387 0.882812L134.84 0.900391H137.846V1.375H137.723C136.551 1.39844 135.607 1.62109 134.893 2.04297C134.4 2.32422 133.961 2.72852 133.574 3.25586C133.398 3.47852 133.193 3.84766 132.959 4.36328C132.736 4.86719 132.479 5.48828 132.186 6.22656L129.9 12.168C129.35 13.668 128.875 14.9629 128.477 16.0527C128.078 17.1309 127.738 18.0566 127.457 18.8301C127.176 19.5918 126.941 20.2188 126.754 20.7109C126.578 21.2031 126.438 21.5957 126.332 21.8887C126.227 22.1816 126.156 22.3984 126.121 22.5391C126.086 22.668 126.068 22.7676 126.068 22.8379C126.068 23.5645 126.508 23.998 127.387 24.1387C127.609 24.1855 127.844 24.2207 128.09 24.2441C128.348 24.2559 128.611 24.2617 128.881 24.2617H131.008L131.025 24.2266L134.84 24.2441L141.941 5.08398C142.141 4.49805 142.299 4.01758 142.416 3.64258C142.533 3.25586 142.592 2.96289 142.592 2.76367C142.592 2.03711 142.152 1.60352 141.273 1.46289C141.051 1.41602 140.811 1.38672 140.553 1.375C140.307 1.35156 140.049 1.33984 139.779 1.33984H139.744V0.865234H149.729V1.33984H149.254C148.293 1.35156 147.561 1.56836 147.057 1.99023C146.682 2.31836 146.359 2.74023 146.09 3.25586C145.973 3.4668 145.826 3.77734 145.65 4.1875C145.486 4.58594 145.287 5.08984 145.053 5.69922L138.109 24.2441H143.963C144.924 24.2324 145.656 24.0156 146.16 23.5938C146.535 23.2656 146.857 22.8438 147.127 22.3281C147.244 22.1172 147.385 21.8125 147.549 21.4141C147.725 21.0039 147.93 20.4941 148.164 19.8848L154.176 5.01367ZM167.57 8.98633C168.566 8.98633 169.387 9.36719 170.031 10.1289C170.793 11.0078 171.174 12.2676 171.174 13.9082C171.174 16.7207 170.307 19.3984 168.572 21.9414C166.955 24.2734 165.145 25.4395 163.141 25.4395C162.051 25.4395 161.178 24.9824 160.521 24.0684C159.865 23.1777 159.537 21.9883 159.537 20.5C159.537 17.8867 160.381 15.3086 162.068 12.7656C163.768 10.2461 165.602 8.98633 167.57 8.98633ZM165.918 22.082C167.254 19.8672 168.268 17.6699 168.959 15.4902C169.217 14.6934 169.398 13.9727 169.504 13.3281C169.551 13.0703 169.58 12.8301 169.592 12.6074C169.604 12.4316 169.609 12.2559 169.609 12.0801C169.609 11.2598 169.398 10.6504 168.977 10.252C168.66 9.95898 168.279 9.8125 167.834 9.8125C166.674 9.8125 165.285 11.3828 163.668 14.5234C162.777 16.2227 162.104 17.8223 161.646 19.3223C161.283 20.541 161.102 21.5723 161.102 22.416C161.102 23.9746 161.664 24.7539 162.789 24.7539C163.422 24.7539 164.055 24.4258 164.688 23.7695C164.91 23.5234 165.139 23.2305 165.373 22.8906L165.672 22.4688L165.795 22.2754L165.918 22.082ZM180.754 20.6055C179.02 23.8047 177.174 25.4043 175.217 25.4043C174.021 25.4043 173.178 24.9004 172.686 23.8926C172.521 23.5527 172.404 23.166 172.334 22.7324C172.311 22.5801 172.293 22.4219 172.281 22.2578L172.264 21.9414C172.264 20.5938 172.598 19.123 173.266 17.5293C173.805 16.2754 174.502 15.0332 175.357 13.8027C177.549 10.6152 179.746 9.02148 181.949 9.02148C183.332 9.02148 184.023 9.58398 184.023 10.709C184.023 11.6465 183.613 12.1152 182.793 12.1152C182.102 12.1152 181.756 11.7285 181.756 10.9551C181.756 10.7676 181.797 10.5801 181.879 10.3926L181.932 10.3047L181.984 10.1992C182.02 10.1172 182.037 10.0352 182.037 9.95312C182.037 9.85938 182.008 9.7832 181.949 9.72461C181.867 9.63086 181.75 9.58398 181.598 9.58398C180.461 9.58398 179.324 10.4863 178.188 12.291C177.801 12.9121 177.396 13.6562 176.975 14.5234C176.447 15.6016 175.961 16.7441 175.516 17.9512C174.73 20.0605 174.338 21.6426 174.338 22.6973C174.338 24.0684 174.771 24.7539 175.639 24.7539C176.4 24.7539 177.256 24.2441 178.205 23.2246C178.873 22.5098 179.6 21.5312 180.385 20.2891L180.754 20.6055ZM187.416 12.7305L187.469 12.5898L187.521 12.4316L187.645 12.0449C187.738 11.7051 187.785 11.4766 187.785 11.3594V11.2539L187.75 11.0957C187.703 10.9551 187.627 10.8848 187.521 10.8848C187.053 10.8848 186.121 11.9688 184.727 14.1367L184.305 14.7695L183.812 14.418L183.883 14.3125L183.953 14.1895C184.023 14.0723 184.088 13.9609 184.146 13.8555C184.346 13.5391 184.533 13.2402 184.709 12.959C185.248 12.1152 185.711 11.4473 186.098 10.9551C186.168 10.873 186.232 10.791 186.291 10.709L186.555 10.4102C186.777 10.1758 187 9.9707 187.223 9.79492C187.832 9.30273 188.418 9.05664 188.98 9.05664H189.121L189.262 9.0918C189.402 9.12695 189.52 9.17969 189.613 9.25C189.883 9.46094 190.018 9.8125 190.018 10.3047C190.018 10.75 189.912 11.3535 189.701 12.1152C189.619 12.3965 189.531 12.6895 189.438 12.9941C189.367 13.2168 189.291 13.4277 189.209 13.627L188.172 16.5449C189.156 14.6699 190.229 13.0586 191.389 11.7109C192.924 9.89453 194.289 8.98633 195.484 8.98633H195.66L195.889 9.02148C196.088 9.05664 196.264 9.12109 196.416 9.21484C196.838 9.47266 197.049 9.93555 197.049 10.6035C197.049 11.1309 196.838 11.957 196.416 13.082L194.992 16.8965C195.52 15.9824 196.035 15.1387 196.539 14.3652C197.207 13.334 197.816 12.4844 198.367 11.8164C198.473 11.6992 198.572 11.5879 198.666 11.4824C198.795 11.3301 198.93 11.1836 199.07 11.043C199.41 10.6914 199.744 10.3809 200.072 10.1113C201.01 9.36133 201.871 8.98633 202.656 8.98633C203.641 8.98633 204.133 9.53711 204.133 10.6387C204.133 11.166 203.992 11.8223 203.711 12.6074L203.324 13.6094L202.92 14.5938L200.09 21.5723C199.727 22.498 199.545 23.0664 199.545 23.2773V23.3652L199.562 23.4883C199.598 23.582 199.656 23.6289 199.738 23.6289C200.312 23.6289 201.285 22.5977 202.656 20.5352L203.148 20.9746L202.902 21.3086L202.639 21.6777L202.094 22.4336C201.66 22.9961 201.256 23.4766 200.881 23.875C199.896 24.918 199.018 25.4395 198.244 25.4395C197.869 25.4395 197.57 25.2988 197.348 25.0176C197.16 24.7715 197.066 24.4785 197.066 24.1387C197.066 23.6348 197.236 22.9492 197.576 22.082C197.682 21.7891 197.822 21.4316 197.998 21.0098L198.227 20.5176L198.402 20.0605L201.074 13.5918C201.543 12.4316 201.777 11.6523 201.777 11.2539C201.777 10.7734 201.584 10.5332 201.197 10.5332C200.682 10.5332 199.932 11.1016 198.947 12.2383C197.729 13.6562 196.41 15.6895 194.992 18.3379C193.973 20.2598 192.953 22.4805 191.934 25H189.736L194.254 12.9414C194.289 12.8477 194.324 12.7363 194.359 12.6074L194.5 12.168C194.617 11.7812 194.676 11.4883 194.676 11.2891C194.676 10.7852 194.488 10.5332 194.113 10.5332C193.164 10.5332 191.781 11.9688 189.965 14.8398C188.055 17.8281 186.408 21.2148 185.025 25H182.846L187.416 12.7305ZM213.01 19.8848C211.873 21.9355 210.701 23.418 209.494 24.332C208.545 25.0703 207.596 25.4395 206.646 25.4395C204.936 25.4395 204.08 24.4785 204.08 22.5566C204.08 21.3262 204.49 19.8965 205.311 18.2676C205.639 17.6348 206.02 16.9785 206.453 16.2988C206.793 15.7715 207.162 15.2383 207.561 14.6992C210.326 10.9141 212.846 9.02148 215.119 9.02148C216.186 9.02148 216.912 9.53711 217.299 10.5684L218.828 9.02148H220.006L215.998 17.9863C214.744 20.8223 214.117 22.498 214.117 23.0137C214.117 23.3535 214.229 23.5234 214.451 23.5234H214.504C214.75 23.4883 215.201 23.1133 215.857 22.3984C216.104 22.1289 216.361 21.8301 216.631 21.502C216.854 21.2207 217.059 20.957 217.246 20.7109L217.633 20.2188L217.984 20.6055L217.018 21.9414C216.795 22.2461 216.525 22.5801 216.209 22.9434C215.846 23.3652 215.482 23.7461 215.119 24.0859C214.17 24.9883 213.426 25.4395 212.887 25.4395C212.617 25.4395 212.389 25.3457 212.201 25.1582C211.967 24.9238 211.85 24.5957 211.85 24.1738C211.85 23.6348 212.172 22.3984 212.816 20.4648L213.01 19.8848ZM216.332 11.0957C216.332 10.1465 215.898 9.67188 215.031 9.67188C214.141 9.67188 213.121 10.3164 211.973 11.6055C211.539 12.0859 211.094 12.6543 210.637 13.3105C210.461 13.5684 210.279 13.8438 210.092 14.1367C209.951 14.3477 209.799 14.582 209.635 14.8398L209.459 15.1387L209.248 15.4727C209.084 15.7539 208.926 16.0293 208.773 16.2988C208.363 17.0137 208.006 17.6934 207.701 18.3379C206.822 20.1426 206.383 21.5723 206.383 22.627C206.383 23.7285 206.816 24.2793 207.684 24.2793C208.281 24.2793 208.967 23.9336 209.74 23.2422C210.807 22.2695 211.973 20.6582 213.238 18.4082L213.273 18.3555L213.326 18.2676C213.361 18.1855 213.402 18.1094 213.449 18.0391C213.578 17.8047 213.707 17.5703 213.836 17.3359C214.223 16.6094 214.574 15.9238 214.891 15.2793C215.852 13.2637 216.332 11.8691 216.332 11.0957ZM231.889 21.2207C231.514 21.8887 231.051 22.6328 230.5 23.4531C230.09 24.0273 229.721 24.4551 229.393 24.7363C228.889 25.1465 228.379 25.3516 227.863 25.3516C227.395 25.3516 227.037 25.123 226.791 24.666C226.568 24.2676 226.457 23.7695 226.457 23.1719V22.9082L226.633 19.3047V19.1289C226.633 17.8164 226.059 17.1602 224.91 17.1602H224.26L221.324 25H219.162L223.574 13.2227C223.785 12.6719 223.926 12.2324 223.996 11.9043C224.066 11.6699 224.102 11.4766 224.102 11.3242C224.102 11.1484 224.066 11.0254 223.996 10.9551C223.949 10.9082 223.885 10.8848 223.803 10.8848C223.721 10.8848 223.633 10.9082 223.539 10.9551C223.41 11.0254 223.264 11.1309 223.1 11.2715C222.666 11.6816 222.133 12.3789 221.5 13.3633L220.621 14.7344L220.129 14.418L220.85 13.2227C221.178 12.6953 221.477 12.2324 221.746 11.834C222.121 11.2949 222.479 10.8379 222.818 10.4629C223.697 9.50195 224.5 9.02148 225.227 9.02148C226.012 9.02148 226.404 9.56055 226.404 10.6387C226.404 11.1543 226.293 11.6934 226.07 12.2559L224.541 16.3516H225.824C226.305 16.3516 226.762 16.1758 227.195 15.8242C227.523 15.5547 227.852 15.168 228.18 14.6641C228.531 14.1602 229.023 13.1875 229.656 11.7461L229.867 11.2539L230.096 10.7793C230.271 10.4277 230.447 10.1348 230.623 9.90039C231.08 9.31445 231.631 9.02148 232.275 9.02148C232.744 9.02148 233.113 9.17383 233.383 9.47852C233.629 9.73633 233.752 10.0527 233.752 10.4277C233.752 10.791 233.629 11.0957 233.383 11.3418C233.148 11.5645 232.879 11.6758 232.574 11.6758C232.188 11.6758 231.883 11.5234 231.66 11.2188C231.484 10.9727 231.344 10.8496 231.238 10.8496C231.027 10.8496 230.822 11.0078 230.623 11.3242C230.377 11.7227 230.166 12.1035 229.99 12.4668L229.797 12.9238L229.621 13.3457C229.352 14.0488 229.023 14.6699 228.637 15.209C228.133 15.9121 227.553 16.4277 226.896 16.7559C228.127 17.4004 228.742 18.5664 228.742 20.2539V20.3945L228.672 22.873C228.672 23.3066 228.824 23.5234 229.129 23.5234C229.434 23.5234 229.832 23.1895 230.324 22.5215C230.852 21.7949 231.221 21.2383 231.432 20.8516L231.889 21.2207Z" fill="white"></path> </svg> 